<svg xmlns="http://www.w3.org/2000/svg" version="1.1" xmlns:xlink="http://www.w3.org/1999/xlink" xmlns:svgjs="http://svgjs.com/svgjs" width="1000" height="1000"><rect width="1000" height="1000" rx="0" ry="0" fill="#555555"></rect><g transform="matrix(2.143731635651322,0,0,2.143731635651322,71.2336884968131,0.045909924685645365)"><svg xmlns="http://www.w3.org/2000/svg" version="1.1" xmlns:xlink="http://www.w3.org/1999/xlink" xmlns:svgjs="http://svgjs.com/svgjs" width="400" height="466.4762992575671"><svg id="svg" version="1.1" xmlns="http://www.w3.org/2000/svg" xmlns:xlink="http://www.w3.org/1999/xlink" width="400" height="466.4762992575671" viewBox="0, 0, 400,466.4762992575671"><g id="svgg"><path id="path0" d="M156.392 138.431 C 127.759 154.871,104.193 168.268,104.022 168.203 C 103.795 168.115,103.711 168.318,103.708 168.965 C 103.603 191.529,103.886 229.355,104.160 229.355 C 104.294 229.355,114.299 224.093,141.062 209.946 C 146.716 206.958,151.876 204.244,152.528 203.915 C 153.180 203.587,153.965 203.067,154.272 202.760 C 154.579 202.453,155.228 202.095,155.713 201.963 C 156.199 201.832,156.839 201.554,157.135 201.346 C 157.525 201.072,157.719 201.040,157.837 201.231 C 157.950 201.414,158.137 201.345,158.441 201.009 C 158.683 200.742,158.846 200.466,158.803 200.397 C 158.705 200.237,207.439 172.704,207.823 172.703 C 207.980 172.702,221.723 180.411,238.363 189.834 C 255.003 199.258,268.716 206.967,268.836 206.967 C 269.078 206.967,297.658 162.396,297.658 162.019 C 297.658 161.839,208.688 108.459,208.496 108.525 C 208.472 108.533,185.025 121.991,156.392 138.431 " stroke="none" fill="#fcd404" fill-rule="evenodd"></path><path id="path1" d="M100.057 58.359 L 0.114 116.669 0.050 232.692 C 0.014 296.505,0.045 349.023,0.117 349.400 C 0.256 350.120,199.051 466.383,200.082 466.348 C 200.309 466.340,245.384 440.142,300.248 408.131 L 400.000 349.927 399.943 233.277 L 399.886 116.627 300.742 58.781 C 246.214 26.966,201.239 0.735,200.800 0.491 L 200.000 0.048 100.057 58.359 M283.707 86.944 L 367.333 135.738 367.329 233.203 L 367.326 330.668 284.706 378.983 C 239.266 405.557,201.617 427.566,201.043 427.893 L 200.000 428.488 116.505 379.764 L 33.010 331.041 32.962 233.310 L 32.915 135.580 116.457 86.867 C 162.406 60.075,200.018 38.153,200.040 38.152 C 200.062 38.151,237.712 60.107,283.707 86.944 M157.435 201.550 C 157.268 201.753,156.754 202.040,156.292 202.188 C 155.831 202.337,155.344 202.545,155.210 202.651 C 155.075 202.756,153.419 203.643,151.528 204.620 C 149.638 205.597,138.159 211.639,126.020 218.047 L 103.949 229.697 103.950 259.280 L 103.951 288.864 154.684 318.561 C 182.588 334.894,205.588 348.288,205.796 348.324 C 206.111 348.379,295.300 297.778,295.919 297.194 C 296.267 296.865,269.522 249.888,269.052 250.002 C 268.835 250.054,255.017 258.142,238.346 267.974 C 210.602 284.337,207.984 285.831,207.444 285.616 C 207.119 285.487,195.957 279.257,182.638 271.771 L 158.424 258.162 158.284 247.927 C 158.207 242.298,158.120 230.343,158.090 221.359 C 158.032 203.758,157.938 200.940,157.435 201.550 M0.392 211.708 C 0.340 212.053,0.297 211.770,0.297 211.079 C 0.297 210.388,0.340 210.106,0.392 210.451 C 0.444 210.797,0.444 211.362,0.392 211.708 " stroke="none" fill="#fcfcfb" fill-rule="evenodd"></path><path id="path2" d="M202.798 111.610 C 201.944 112.073,201.996 112.266,202.856 111.822 C 203.232 111.627,203.541 111.419,203.541 111.359 C 203.541 111.212,203.516 111.220,202.798 111.610 M188.864 119.605 C 188.009 120.069,188.061 120.262,188.921 119.817 C 189.298 119.622,189.606 119.414,189.606 119.354 C 189.606 119.207,189.581 119.216,188.864 119.605 M174.929 127.601 C 174.075 128.064,174.127 128.257,174.986 127.813 C 175.363 127.618,175.671 127.410,175.671 127.350 C 175.671 127.203,175.646 127.211,174.929 127.601 M160.994 135.596 C 160.140 136.059,160.192 136.252,161.051 135.808 C 161.428 135.613,161.736 135.405,161.736 135.345 C 161.736 135.198,161.712 135.207,160.994 135.596 M147.059 143.592 C 146.205 144.055,146.257 144.248,147.116 143.804 C 147.493 143.609,147.801 143.400,147.801 143.341 C 147.801 143.194,147.777 143.202,147.059 143.592 M133.124 151.587 C 132.270 152.050,132.322 152.243,133.181 151.799 C 133.558 151.604,133.866 151.396,133.866 151.336 C 133.866 151.189,133.842 151.198,133.124 151.587 M119.189 159.582 C 118.335 160.046,118.387 160.239,119.246 159.794 C 119.623 159.599,119.931 159.391,119.931 159.332 C 119.931 159.185,119.907 159.193,119.189 159.582 M297.544 162.108 C 297.544 162.763,297.576 162.773,297.875 162.216 C 298.042 161.903,298.029 161.752,297.826 161.674 C 297.651 161.607,297.544 161.772,297.544 162.108 M294.547 167.047 C 293.761 168.381,293.710 168.495,294.110 168.018 C 294.574 167.465,294.974 166.762,294.824 166.762 C 294.765 166.762,294.640 166.890,294.547 167.047 M105.254 167.578 C 104.400 168.041,104.452 168.234,105.311 167.790 C 105.688 167.595,105.997 167.387,105.997 167.327 C 105.997 167.180,105.972 167.188,105.254 167.578 M204.397 174.431 C 203.543 174.894,203.595 175.087,204.455 174.643 C 204.832 174.448,205.140 174.240,205.140 174.180 C 205.140 174.033,205.115 174.042,204.397 174.431 M211.308 174.631 C 211.308 174.694,211.616 174.905,211.993 175.100 C 212.370 175.295,212.678 175.403,212.678 175.340 C 212.678 175.277,212.370 175.066,211.993 174.872 C 211.616 174.677,211.308 174.569,211.308 174.631 M202.798 175.345 C 201.944 175.808,201.996 176.001,202.856 175.557 C 203.232 175.362,203.541 175.154,203.541 175.094 C 203.541 174.947,203.516 174.955,202.798 175.345 M212.907 175.545 C 212.907 175.608,213.215 175.819,213.592 176.014 C 213.969 176.209,214.278 176.317,214.278 176.254 C 214.278 176.191,213.969 175.980,213.592 175.785 C 213.215 175.590,212.907 175.482,212.907 175.545 M199.143 177.401 C 198.289 177.864,198.341 178.057,199.200 177.613 C 199.577 177.418,199.886 177.210,199.886 177.150 C 199.886 177.003,199.861 177.011,199.143 177.401 M218.161 178.515 C 218.161 178.578,218.469 178.789,218.846 178.983 C 219.223 179.178,219.532 179.286,219.532 179.224 C 219.532 179.161,219.223 178.950,218.846 178.755 C 218.469 178.560,218.161 178.452,218.161 178.515 M193.889 180.371 C 193.035 180.834,193.087 181.027,193.946 180.583 C 194.323 180.388,194.632 180.179,194.632 180.120 C 194.632 179.973,194.607 179.981,193.889 180.371 M285.638 180.982 C 284.852 182.316,284.801 182.430,285.201 181.953 C 285.665 181.400,286.065 180.697,285.915 180.697 C 285.855 180.697,285.731 180.825,285.638 180.982 M223.415 181.485 C 223.415 181.547,223.724 181.758,224.101 181.953 C 224.477 182.148,224.786 182.256,224.786 182.193 C 224.786 182.131,224.477 181.920,224.101 181.725 C 223.724 181.530,223.415 181.422,223.415 181.485 M225.014 182.398 C 225.014 182.461,225.323 182.672,225.700 182.867 C 226.077 183.062,226.385 183.170,226.385 183.107 C 226.385 183.044,226.077 182.833,225.700 182.638 C 225.323 182.444,225.014 182.335,225.014 182.398 M188.635 183.340 C 187.781 183.804,187.833 183.997,188.692 183.552 C 189.069 183.357,189.377 183.149,189.377 183.090 C 189.377 182.943,189.353 182.951,188.635 183.340 M184.980 185.396 C 184.126 185.860,184.178 186.053,185.037 185.608 C 185.414 185.413,185.722 185.205,185.722 185.145 C 185.722 184.998,185.698 185.007,184.980 185.396 M230.268 185.368 C 230.268 185.431,230.577 185.642,230.954 185.837 C 231.331 186.032,231.639 186.140,231.639 186.077 C 231.639 186.014,231.331 185.803,230.954 185.608 C 230.577 185.413,230.268 185.305,230.268 185.368 M183.381 186.310 C 182.527 186.773,182.579 186.966,183.438 186.522 C 183.815 186.327,184.123 186.119,184.123 186.059 C 184.123 185.912,184.099 185.921,183.381 186.310 M281.983 186.693 C 281.197 188.027,281.146 188.141,281.546 187.664 C 282.010 187.111,282.410 186.408,282.260 186.408 C 282.200 186.408,282.076 186.536,281.983 186.693 M179.726 188.366 C 178.872 188.829,178.924 189.022,179.783 188.578 C 180.160 188.383,180.468 188.175,180.468 188.115 C 180.468 187.968,180.444 187.976,179.726 188.366 M237.122 189.252 C 237.122 189.314,237.430 189.525,237.807 189.720 C 238.184 189.915,238.492 190.023,238.492 189.960 C 238.492 189.898,238.184 189.687,237.807 189.492 C 237.430 189.297,237.122 189.189,237.122 189.252 M174.472 191.336 C 173.618 191.799,173.670 191.992,174.529 191.548 C 174.906 191.353,175.214 191.145,175.214 191.085 C 175.214 190.938,175.190 190.946,174.472 191.336 M242.376 192.221 C 242.376 192.284,242.684 192.495,243.061 192.690 C 243.438 192.885,243.746 192.993,243.746 192.930 C 243.746 192.867,243.438 192.656,243.061 192.461 C 242.684 192.267,242.376 192.158,242.376 192.221 M278.328 192.404 C 277.542 193.738,277.490 193.852,277.891 193.375 C 278.355 192.822,278.755 192.119,278.605 192.119 C 278.545 192.119,278.421 192.247,278.328 192.404 M243.975 193.135 C 243.975 193.198,244.283 193.409,244.660 193.604 C 245.037 193.799,245.346 193.907,245.346 193.844 C 245.346 193.781,245.037 193.570,244.660 193.375 C 244.283 193.180,243.975 193.072,243.975 193.135 M169.218 194.305 C 168.364 194.769,168.416 194.962,169.275 194.517 C 169.652 194.323,169.960 194.114,169.960 194.055 C 169.960 193.908,169.935 193.916,169.218 194.305 M165.563 196.361 C 164.709 196.825,164.761 197.018,165.620 196.573 C 165.997 196.378,166.305 196.170,166.305 196.111 C 166.305 195.964,166.280 195.972,165.563 196.361 M249.229 196.105 C 249.229 196.168,249.537 196.378,249.914 196.573 C 250.291 196.768,250.600 196.876,250.600 196.814 C 250.600 196.751,250.291 196.540,249.914 196.345 C 249.537 196.150,249.229 196.042,249.229 196.105 M163.963 197.275 C 163.109 197.738,163.161 197.931,164.021 197.487 C 164.397 197.292,164.706 197.084,164.706 197.024 C 164.706 196.877,164.681 196.886,163.963 197.275 M274.673 198.115 C 273.887 199.449,273.835 199.563,274.236 199.086 C 274.700 198.533,275.100 197.830,274.950 197.830 C 274.890 197.830,274.766 197.958,274.673 198.115 M160.308 199.331 C 159.454 199.794,159.506 199.987,160.366 199.543 C 160.742 199.348,161.051 199.140,161.051 199.080 C 161.051 198.933,161.026 198.942,160.308 199.331 M256.082 199.988 C 256.082 200.051,256.391 200.262,256.768 200.457 C 257.144 200.652,257.453 200.760,257.453 200.697 C 257.453 200.634,257.144 200.423,256.768 200.228 C 256.391 200.034,256.082 199.925,256.082 199.988 M261.336 202.958 C 261.336 203.021,261.645 203.232,262.022 203.427 C 262.399 203.622,262.707 203.730,262.707 203.667 C 262.707 203.604,262.399 203.393,262.022 203.198 C 261.645 203.003,261.336 202.895,261.336 202.958 M262.935 203.872 C 262.935 203.935,263.244 204.145,263.621 204.340 C 263.998 204.535,264.306 204.643,264.306 204.581 C 264.306 204.518,263.998 204.307,263.621 204.112 C 263.244 203.917,262.935 203.809,262.935 203.872 " stroke="none" fill="#fce458" fill-rule="evenodd"></path><path id="path3" d="M154.496 202.762 L 153.855 203.354 154.597 202.861 C 155.277 202.409,155.499 202.170,155.238 202.170 C 155.183 202.170,154.848 202.437,154.496 202.762 M0.281 210.623 C 0.281 211.062,0.328 211.242,0.386 211.022 C 0.443 210.802,0.443 210.443,0.386 210.223 C 0.328 210.003,0.281 210.183,0.281 210.623 " stroke="none" fill="#f3e89b" fill-rule="evenodd"></path><path id="path4" d="" stroke="none" fill="#faf4cf" fill-rule="evenodd"></path><path id="path5" d="" stroke="none" fill="#ececec" fill-rule="evenodd"></path><path id="path6" d="" stroke="none" fill="#fcfcd4" fill-rule="evenodd"></path></g></svg></svg></g></svg>