<svg version="1.2" xmlns="http://www.w3.org/2000/svg" viewBox="0 0 1464 622" width="1464" height="622">
	<title>cool-background-cropped-svg</title>
	<style>
		.s0 { fill: #fffa72 } 
		.s1 { fill: #c7e1f3 } 
		.s2 { fill: #b8cfe6 } 
		.s3 { fill: #a9beda } 
		.s4 { fill: #9aadce } 
		.s5 { fill: #8b9bc1 } 
		.s6 { fill: #7d8ab5 } 
		.s7 { fill: #6e79a9 } 
		.s8 { fill: #5f679c } 
		.s9 { fill: #505690 } 
		.s10 { fill: #414584 } 
		.s11 { fill: #323377 } 
		.s12 { fill: #23226b } 
	</style>
	<path id="Layer" class="s0" d="m414.6 146.4q47.3-98.4 339.2-98.4c291.9 0 236.5 134.9 205.8 222.4c-30.8 87.5-210.5 127-269.5 76c-58.9-51-199.9-60.4-259.3-83.9q-59.3-23.5-16.2-116.1z" />
	<path id="Layer" class="s1" d="m-63.2 268.2q132.6-275.4 949.9-275.4c817.2 0 662.2 377.7 576.1 622.8c-86.1 245-589.3 355.4-754.4 212.6c-165.1-142.7-560-169.1-726-234.9q-166.1-65.8-45.6-325.1z" />
	<path id="Layer" class="s2" d="m-23.4 258.1q125.6-260.7 899-260.7c773.4 0 626.7 357.5 545.3 589.4c-81.5 232-557.8 336.4-714 201.3c-156.2-135.2-530-160.1-687.2-222.4q-157.1-62.3-43.1-307.6z" />
	<path id="Layer" class="s3" d="m16.4 247.9q118.5-245.9 848.1-245.9c729.7 0 591.3 337.3 514.4 556.1c-76.8 218.8-526.2 317.3-673.5 189.8c-147.4-127.5-500-151-648.3-209.7q-148.3-58.8-40.7-290.3z" />
	<path id="Layer" class="s4" d="m56.2 237.8q111.4-231.2 797.2-231.2c685.9 0 555.9 317 483.6 522.7c-72.2 205.7-494.6 298.3-633.2 178.5c-138.5-119.9-469.9-142-609.3-197.2q-139.4-55.2-38.3-272.8z" />
	<path id="Layer" class="s5" d="m96 227.6q104.3-216.4 746.4-216.4c642.1 0 520.3 296.8 452.7 489.3c-67.7 192.6-463.1 279.3-592.8 167.1c-129.7-112.2-440-132.9-570.4-184.6q-130.5-51.7-35.9-255.4z" />
	<path id="Layer" class="s6" d="m135.9 217.5q97.1-201.7 695.4-201.7c598.3 0 484.9 276.5 421.8 456c-63 179.4-431.5 260.2-552.3 155.7c-120.9-104.6-410-123.9-531.6-172q-121.6-48.2-33.3-238z" />
	<path id="Layer" class="s7" d="m175.7 207.3q90-186.9 644.5-186.9c554.6 0 449.4 256.3 391 422.6c-58.4 166.3-399.9 241.2-511.9 144.3c-112-96.9-380-114.7-492.7-159.4q-112.7-44.7-30.9-220.6z" />
	<path id="Layer" class="s8" d="m215.5 197.2q82.9-172.2 593.7-172.2c510.7 0 413.9 236.1 360.1 389.2c-53.8 153.2-368.4 222.2-471.6 133c-103.1-89.3-349.9-105.7-453.7-146.9q-103.8-41.1-28.5-203.1z" />
	<path id="Layer" class="s9" d="m255.3 187q75.8-157.4 542.8-157.4c467 0 378.4 215.8 329.2 355.9c-49.2 140-336.8 203.1-431.1 121.5c-94.3-81.6-320-96.6-414.9-134.3q-94.9-37.6-26-185.7z" />
	<path id="Layer" class="s10" d="m295.1 176.8q68.7-142.6 491.9-142.6c423.2 0 343 195.6 298.4 322.5c-44.6 126.9-305.2 184.1-390.7 110.1c-85.5-73.9-290-87.5-376-121.6q-86-34.1-23.6-168.4z" />
	<path id="Layer" class="s11" d="m334.9 166.7q61.6-127.9 441.1-127.9c379.4 0 307.4 175.4 267.5 289.1c-40 113.8-273.7 165.1-350.3 98.8c-76.7-66.3-260-78.5-337.1-109.1q-77.1-30.6-21.2-150.9z" />
	<path id="Layer" class="s12" d="m374.8 156.5q54.4-113.1 390.1-113.1c335.6 0 272 155.1 236.6 255.8c-35.3 100.6-242 146-309.8 87.3c-67.8-58.6-230-69.4-298.2-96.5q-68.2-27-18.7-133.5z" />
</svg>